# xmcd CD database file
#
# Track frame offsets:
#	150
#	20350
#	39182
#	59350
#	79435
#	93907
#	107600
#	125625
#	148650
#	164970
#
# Disc length: 2487 seconds
#
# Revision: 1
# Processed by: cddbd v1.5.2PL0 Copyright (c) Steve Scherf et al.
# Submitted via: CDex 1.70beta2
#
DISCID=8709b50a
DTITLE=坂本千夏 - BOOGIE QUEEN
DYEAR=1993
DGENRE=JPop
TTITLE0=横綱BOOGIE
TTITLE1=お掃除BOOGIE
TTITLE2=夢のMOMENT
TTITLE3=NO, NO, NO
TTITLE4=BIG MAM BOOGIE
TTITLE5=BEAT IT
TTITLE6=通勤BOOGIE
TTITLE7=心配しないで
TTITLE8=CINDERELLA LIBERTY
TTITLE9=おやすみDARLIN
EXTD=YEAR: 1993
EXTT0=
EXTT1=
EXTT2=
EXTT3=
EXTT4=
EXTT5=
EXTT6=
EXTT7=
EXTT8=
EXTT9=
PLAYORDER=
